<?xml version="1.0" encoding="UTF-8" standalone="no"?>
<!-- Created with Inkscape (http://www.inkscape.org/) -->

<svg
   width="50"
   height="50"
   viewBox="0 0 50 50"
   version="1.1"
   id="svg5"
   inkscape:version="1.2 (dc2aedaf03, 2022-05-15)"
   sodipodi:docname="right.svg"
   xmlns:inkscape="http://www.inkscape.org/namespaces/inkscape"
   xmlns:sodipodi="http://sodipodi.sourceforge.net/DTD/sodipodi-0.dtd"
   xmlns="http://www.w3.org/2000/svg"
   xmlns:svg="http://www.w3.org/2000/svg">
  <sodipodi:namedview
     id="namedview7"
     pagecolor="#505050"
     bordercolor="#eeeeee"
     borderopacity="1"
     inkscape:showpageshadow="false"
     inkscape:pageopacity="0"
     inkscape:pagecheckerboard="0"
     inkscape:deskcolor="#505050"
     inkscape:document-units="px"
     showgrid="true"
     inkscape:zoom="11.930303"
     inkscape:cx="15.17145"
     inkscape:cy="27.995936"
     inkscape:window-width="1920"
     inkscape:window-height="1017"
     inkscape:window-x="1358"
     inkscape:window-y="-8"
     inkscape:window-maximized="1"
     inkscape:current-layer="layer1">
    <inkscape:grid
       type="xygrid"
       id="grid460"
       originx="0"
       originy="0"
       spacingx="1"
       dotted="true" />
  </sodipodi:namedview>
  <defs
     id="defs2" />
  <g
     inkscape:label="Capa 1"
     inkscape:groupmode="layer"
     id="layer1">
    <rect
       style="fill:#ff0000;stroke-width:0.264583"
       id="rect253"
       x="-4.2137098"
       y="4.3024192"
       width="0.1"
       height="0" />
    <rect
       style="fill:#ff0000"
       id="rect305"
       x="-0.11853963"
       y="0.11853956"
       height="48"
       width="0" />
    <path
       id="rect529"
       style="fill:#44bf30;fill-opacity:1"
       d="M 5,5 H 0 V 0 h 5 z" />
    <path
       id="rect529-2"
       style="fill:#44bf30;fill-opacity:1"
       d="M 10,10 H 5 V 5 h 5 z" />
    <path
       id="rect529-5"
       style="fill:#44bf30;fill-opacity:1"
       d="M 5,10 H 0 V 5 h 5 z" />
    <path
       id="rect529-1"
       style="fill:#44bf30;fill-opacity:1"
       d="M 10,5 H 5 V 0 h 5 z" />
    <path
       id="rect529-6"
       style="fill:#44bf30;fill-opacity:1"
       d="M 15,5 H 10 V 0 h 5 z" />
    <path
       id="rect529-2-1"
       style="fill:#3737c8;fill-opacity:1"
       d="M 20,10 H 15 V 5 h 5 z" />
    <path
       id="rect529-5-9"
       style="fill:#44bf30;fill-opacity:1"
       d="M 15,10 H 10 V 5 h 5 z" />
    <path
       id="rect529-1-2"
       style="fill:#3737c8;fill-opacity:1"
       d="M 20,5 H 15 V 0 h 5 z" />
    <path
       id="rect529-18"
       style="fill:#3737c8;fill-opacity:1"
       d="M 25,5 H 20 V 0 h 5 z" />
    <path
       id="rect529-2-4"
       style="fill:#3737c8;fill-opacity:1"
       d="M 30,10 H 25 V 5 h 5 z" />
    <path
       id="rect529-5-99"
       style="fill:#3737c8;fill-opacity:1"
       d="M 25,10 H 20 V 5 h 5 z" />
    <path
       id="rect529-1-7"
       style="fill:#3737c8;fill-opacity:1"
       d="M 30,5 H 25 V 0 h 5 z" />
    <path
       id="rect529-9"
       style="fill:#3737c8;fill-opacity:1"
       d="M 35,5 H 30 V 0 h 5 z" />
    <path
       id="rect529-2-7"
       style="fill:#44bf30;fill-opacity:1"
       d="M 40,10 H 35 V 5 h 5 z" />
    <path
       id="rect529-5-0"
       style="fill:#3737c8;fill-opacity:1"
       d="M 35,10 H 30 V 5 h 5 z" />
    <path
       id="rect529-1-9"
       style="fill:#44bf30;fill-opacity:1"
       d="M 40,5 H 35 V 0 h 5 z" />
    <path
       id="rect529-8"
       style="fill:#44bf30;fill-opacity:1"
       d="M 45,5 H 40 V 0 h 5 z" />
    <path
       id="rect529-2-5"
       style="fill:#44bf30;fill-opacity:1"
       d="M 50,10 H 45 V 5 h 5 z" />
    <path
       id="rect529-5-4"
       style="fill:#44bf30;fill-opacity:1"
       d="M 45,10 H 40 V 5 h 5 z" />
    <path
       id="rect529-1-1"
       style="fill:#44bf30;fill-opacity:1"
       d="M 50,5 H 45 V 0 h 5 z" />
    <path
       id="rect529-90"
       style="fill:#44bf30;fill-opacity:1"
       d="m 45,15 h -5 v -5 h 5 z" />
    <path
       id="rect529-2-43"
       style="fill:#3737c8;fill-opacity:1"
       d="m 50,20 h -5 v -5 h 5 z" />
    <path
       id="rect529-5-45"
       style="fill:#3737c8;fill-opacity:1"
       d="m 45,20 h -5 v -5 h 5 z" />
    <path
       id="rect529-1-8"
       style="fill:#44bf30;fill-opacity:1"
       d="m 50,15 h -5 v -5 h 5 z" />
    <path
       id="rect529-0"
       style="fill:#3737c8;fill-opacity:1"
       d="m 35,15 h -5 v -5 h 5 z" />
    <path
       id="rect529-2-9"
       style="fill:#3737c8;fill-opacity:1"
       d="m 40,20 h -5 v -5 h 5 z" />
    <path
       id="rect529-5-7"
       style="fill:#3737c8;fill-opacity:1"
       d="m 35,20 h -5 v -5 h 5 z" />
    <path
       id="rect529-1-99"
       style="fill:#44bf30;fill-opacity:1"
       d="m 40,15 h -5 v -5 h 5 z" />
    <path
       id="rect529-51"
       style="fill:#3737c8;fill-opacity:1"
       d="m 25,15 h -5 v -5 h 5 z" />
    <path
       id="rect529-2-94"
       style="fill:#3737c8;fill-opacity:1"
       d="m 30,20 h -5 v -5 h 5 z" />
    <path
       id="rect529-5-6"
       style="fill:#3737c8;fill-opacity:1"
       d="m 25,20 h -5 v -5 h 5 z" />
    <path
       id="rect529-1-3"
       style="fill:#3737c8;fill-opacity:1"
       d="m 30,15 h -5 v -5 h 5 z" />
    <path
       id="rect529-02"
       style="fill:#44bf30;fill-opacity:1"
       d="m 15,15 h -5 v -5 h 5 z" />
    <path
       id="rect529-2-0"
       style="fill:#3737c8;fill-opacity:1"
       d="m 20,20 h -5 v -5 h 5 z" />
    <path
       id="rect529-5-96"
       style="fill:#3737c8;fill-opacity:1"
       d="m 25,40 v -5 h 5 v 5 z" />
    <path
       id="rect529-1-0"
       style="fill:#3737c8;fill-opacity:1"
       d="m 20,15 h -5 v -5 h 5 z" />
    <path
       id="rect529-3"
       style="fill:#44bf30;fill-opacity:1"
       d="M 5,15 H 0 v -5 h 5 z" />
    <path
       id="rect529-2-92"
       style="fill:#3737c8;fill-opacity:1"
       d="m 20,40 v -5 h 5 v 5 z" />
    <path
       id="rect529-5-91"
       style="fill:#3737c8;fill-opacity:1"
       d="m 15,40 v -5 h 5 v 5 z" />
    <path
       id="rect529-1-78"
       style="fill:#44bf30;fill-opacity:1"
       d="M 10,15 H 5 v -5 h 5 z" />
    <path
       id="rect529-71"
       style="fill:#44bf30;fill-opacity:1"
       d="M 5,20 H 0 v -5 h 5 z" />
    <path
       id="rect529-2-12"
       style="fill:#44bf30;fill-opacity:1"
       d="M 10,25 H 5 v -5 h 5 z" />
    <path
       id="rect529-5-5"
       style="fill:#44bf30;fill-opacity:1"
       d="M 5,25 H 0 v -5 h 5 z" />
    <path
       id="rect529-1-10"
       style="fill:#44bf30;fill-opacity:1"
       d="M 10,20 H 5 v -5 h 5 z" />
    <path
       id="rect529-6-2"
       style="fill:#44bf30;fill-opacity:1"
       d="m 15,20 h -5 v -5 h 5 z" />
    <path
       id="rect529-5-9-9"
       style="fill:#44bf30;fill-opacity:1"
       d="m 15,25 h -5 v -5 h 5 z" />
    <path
       id="rect529-02-8"
       style="fill:#44bf30;fill-opacity:1"
       d="m 15,30 h -5 v -5 h 5 z" />
    <path
       id="rect529-3-80"
       style="fill:#44bf30;fill-opacity:1"
       d="M 5,30 H 0 v -5 h 5 z" />
    <path
       id="rect529-1-78-8"
       style="fill:#44bf30;fill-opacity:1"
       d="M 10,30 H 5 v -5 h 5 z" />
    <path
       id="rect529-1-78-8-8"
       style="fill:#44bf30;fill-opacity:1"
       d="M 5,35 H 0 v -5 h 5 z" />
    <path
       id="rect529-1-78-8-1"
       style="fill:#44bf30;fill-opacity:1"
       d="M 10,35 H 5 v -5 h 5 z" />
    <path
       id="rect529-1-78-8-6"
       style="fill:#44bf30;fill-opacity:1"
       d="m 15,35 h -5 v -5 h 5 z" />
    <path
       id="rect529-7"
       style="fill:#3737c8;fill-opacity:1"
       d="m 15,45 v -5 h 5 v 5 z" />
    <path
       id="rect529-2-76"
       style="fill:#3737c8;fill-opacity:1"
       d="m 20,50 v -5 h 5 v 5 z" />
    <path
       id="rect529-5-04"
       style="fill:#3737c8;fill-opacity:1"
       d="m 15,50 v -5 h 5 v 5 z" />
    <path
       id="rect529-1-08"
       style="fill:#3737c8;fill-opacity:1"
       d="m 25,45 h -5 v -5 h 5 z" />
    <path
       id="rect529-6-5"
       style="fill:#3737c8;fill-opacity:1"
       d="m 25,45 v -5 h 5 v 5 z" />
    <path
       id="rect529-2-1-8"
       style="fill:#3737c8;fill-opacity:1"
       d="m 20,30 h -5 v -5 h 5 z" />
    <path
       id="rect529-5-9-3"
       style="fill:#3737c8;fill-opacity:1"
       d="m 25,50 v -5 h 5 v 5 z" />
    <path
       id="rect529-1-2-3"
       style="fill:#3737c8;fill-opacity:1"
       d="m 20,25 h -5 v -5 h 5 z" />
    <path
       id="rect529-18-3"
       style="fill:#3737c8;fill-opacity:1"
       d="m 25,25 h -5 v -5 h 5 z" />
    <path
       id="rect529-2-4-9"
       style="fill:#3737c8;fill-opacity:1"
       d="m 30,30 h -5 v -5 h 5 z" />
    <path
       id="rect529-5-99-7"
       style="fill:#3737c8;fill-opacity:1"
       d="m 25,30 h -5 v -5 h 5 z" />
    <path
       id="rect529-1-7-9"
       style="fill:#3737c8;fill-opacity:1"
       d="m 30,25 h -5 v -5 h 5 z" />
    <path
       id="rect529-9-2"
       style="fill:#3737c8;fill-opacity:1"
       d="m 35,25 h -5 v -5 h 5 z" />
    <path
       id="rect529-2-7-9"
       style="fill:#3737c8;fill-opacity:1"
       d="m 40,30 h -5 v -5 h 5 z" />
    <path
       id="rect529-5-0-7"
       style="fill:#3737c8;fill-opacity:1"
       d="m 35,30 h -5 v -5 h 5 z" />
    <path
       id="rect529-1-9-4"
       style="fill:#3737c8;fill-opacity:1"
       d="m 40,25 h -5 v -5 h 5 z" />
    <path
       id="rect529-8-6"
       style="fill:#3737c8;fill-opacity:1"
       d="m 45,25 h -5 v -5 h 5 z" />
    <path
       id="rect529-2-5-8"
       style="fill:#3737c8;fill-opacity:1"
       d="m 50,30 h -5 v -5 h 5 z" />
    <path
       id="rect529-5-4-7"
       style="fill:#3737c8;fill-opacity:1"
       d="m 45,30 h -5 v -5 h 5 z" />
    <path
       id="rect529-1-1-0"
       style="fill:#3737c8;fill-opacity:1"
       d="m 50,25 h -5 v -5 h 5 z" />
    <path
       id="rect529-90-2"
       style="fill:#3737c8;fill-opacity:1"
       d="m 45,35 h -5 v -5 h 5 z" />
    <path
       id="rect529-2-43-3"
       style="fill:#44bf30;fill-opacity:1"
       d="m 50,40 h -5 v -5 h 5 z" />
    <path
       id="rect529-5-45-3"
       style="fill:#44bf30;fill-opacity:1"
       d="m 45,40 h -5 v -5 h 5 z" />
    <path
       id="rect529-1-8-5"
       style="fill:#3737c8;fill-opacity:1"
       d="m 50,35 h -5 v -5 h 5 z" />
    <path
       id="rect529-0-0"
       style="fill:#3737c8;fill-opacity:1"
       d="m 35,35 h -5 v -5 h 5 z" />
    <path
       id="rect529-2-9-8"
       style="fill:#44bf30;fill-opacity:1"
       d="m 40,40 h -5 v -5 h 5 z" />
    <path
       id="rect529-1-99-1"
       style="fill:#3737c8;fill-opacity:1"
       d="m 40,35 h -5 v -5 h 5 z" />
    <path
       id="rect529-51-9"
       style="fill:#3737c8;fill-opacity:1"
       d="m 25,35 h -5 v -5 h 5 z" />
    <path
       id="rect529-1-3-9"
       style="fill:#3737c8;fill-opacity:1"
       d="m 30,35 h -5 v -5 h 5 z" />
    <path
       id="rect529-02-2"
       style="fill:#3737c8;fill-opacity:1"
       d="m 30,50 v -5 h 5 v 5 z" />
    <path
       id="rect529-5-96-9"
       style="fill:#44bf30;fill-opacity:1"
       d="m 15,40 h -5 v -5 h 5 z" />
    <path
       id="rect529-1-0-7"
       style="fill:#3737c8;fill-opacity:1"
       d="m 20,35 h -5 v -5 h 5 z" />
    <path
       id="rect529-3-8"
       style="fill:#3737c8;fill-opacity:1"
       d="m 30,40 v -5 h 5 v 5 z" />
    <path
       id="rect529-2-92-2"
       style="fill:#44bf30;fill-opacity:1"
       d="M 10,40 H 5 v -5 h 5 z" />
    <path
       id="rect529-5-91-0"
       style="fill:#44bf30;fill-opacity:1"
       d="M 5,40 H 0 v -5 h 5 z" />
    <path
       id="rect529-1-78-0"
       style="fill:#3737c8;fill-opacity:1"
       d="m 30,45 v -5 h 5 v 5 z" />
    <path
       id="rect529-90-2-8"
       style="fill:#44bf30;fill-opacity:1"
       d="m 45,45 h -5 v -5 h 5 z" />
    <path
       id="rect529-2-43-3-7"
       style="fill:#44bf30;fill-opacity:1"
       d="m 50,50 h -5 v -5 h 5 z" />
    <path
       id="rect529-5-45-3-2"
       style="fill:#44bf30;fill-opacity:1"
       d="m 45,50 h -5 v -5 h 5 z" />
    <path
       id="rect529-1-8-5-2"
       style="fill:#44bf30;fill-opacity:1"
       d="m 50,45 h -5 v -5 h 5 z" />
    <path
       id="rect529-2-9-8-6"
       style="fill:#44bf30;fill-opacity:1"
       d="m 40,50 h -5 v -5 h 5 z" />
    <path
       id="rect529-1-99-1-0"
       style="fill:#44bf30;fill-opacity:1"
       d="m 40,45 h -5 v -5 h 5 z" />
    <path
       id="rect529-02-2-6"
       style="fill:#44bf30;fill-opacity:1"
       d="m 15,45 h -5 v -5 h 5 z" />
    <path
       id="rect529-5-96-9-3"
       style="fill:#44bf30;fill-opacity:1"
       d="m 15,50 h -5 v -5 h 5 z" />
    <path
       id="rect529-3-8-1"
       style="fill:#44bf30;fill-opacity:1"
       d="M 5,45 H 0 v -5 h 5 z" />
    <path
       id="rect529-2-92-2-3"
       style="fill:#44bf30;fill-opacity:1"
       d="M 10,50 H 5 v -5 h 5 z" />
    <path
       id="rect529-5-91-0-4"
       style="fill:#44bf30;fill-opacity:1"
       d="M 5,50 H 0 v -5 h 5 z" />
    <path
       id="rect529-1-78-0-7"
       style="fill:#44bf30;fill-opacity:1"
       d="M 10,45 H 5 v -5 h 5 z" />
  </g>
</svg>
